# xmcd
#
# Track frame offsets: 
#        150
#        16145
#        27255
#        42872
#        63204
#        78833
#        93417
#        109047
#        112360
#        128092
#        139829
#
# Disc length: 2075 seconds
#
# Revision: 0
# Processed by: cddbd v1.4PL0 Copyright (c) Steve Scherf et al.
# Submitted via: ExactAudioCopy v0.95a3
#
DISCID=8908190b
DTITLE=Capgun Cowboys - Girls, Cars and Smoke Filled Bars
DYEAR=2003
DGENRE=Country
TTITLE0=Barrel Gun Road
TTITLE1=Wall Mart Wedding
TTITLE2=I Know What I Want
TTITLE3=Full Tank
TTITLE4=Goes Down Slow
TTITLE5=Misfire
TTITLE6=Bad Memory
TTITLE7=The Message
TTITLE8=Phone Call From Texas
TTITLE9=Breakin' Hearts
TTITLE10=Baggage Claim (The Cowboy Song)
EXTD=
EXTT0=
EXTT1=
EXTT2=
EXTT3=
EXTT4=
EXTT5=
EXTT6=
EXTT7=
EXTT8=
EXTT9=
EXTT10=
PLAYORDER=
